<svg viewBox="0 0 24 24" xmlns="http://www.w3.org/2000/svg">
    <g id="bookmark">
        <path d="M3 24V1.98621C3 1.45655 3.19862 0.993104 3.59586 0.595862C3.9931 0.198621 4.45655 0 4.98621 0H19.5517C20.0814 0 20.5448 0.198621 20.9421 0.595862C21.3393 0.993104 21.5379 1.45655 21.5379 1.98621V24L12.269 20.0276L3 24ZM4.98621 20.9876L12.269 17.909L19.5517 20.9876V1.98621H4.98621V20.9876ZM4.98621 1.98621H19.5517H12.269H4.98621Z" fill="currentColor"/>
    </g>

    <g id="chat">
        <path d="M4.8 14.43H14.19V12.63H4.8V14.43ZM4.8 10.53H19.2V8.73H4.8V10.53ZM4.8 6.63H19.2V4.83H4.8V6.63ZM0 24V1.8C0 1.34 0.18 0.925 0.54 0.555C0.9 0.185 1.32 0 1.8 0H22.2C22.66 0 23.075 0.185 23.445 0.555C23.815 0.925 24 1.34 24 1.8V17.4C24 17.86 23.815 18.275 23.445 18.645C23.075 19.015 22.66 19.2 22.2 19.2H4.8L0 24ZM1.8 19.65L4.05 17.4H22.2V1.8H1.8V19.65Z" fill="currentColor"/>
    </g>

    <g id="favorite">
        <path d="M12 22.99L10.77 21.88C8.65 19.94 6.9 18.265 5.52 16.855C4.14 15.445 3.04 14.185 2.22 13.075C1.4 11.965 0.825 10.96 0.495 10.06C0.165 9.16 0 8.25 0 7.33C0 5.53 0.605 4.025 1.815 2.815C3.025 1.605 4.52 1 6.3 1C7.44 1 8.495 1.27 9.465 1.81C10.435 2.35 11.28 3.13 12 4.15C12.84 3.07 13.73 2.275 14.67 1.765C15.61 1.255 16.62 1 17.7 1C19.48 1 20.975 1.605 22.185 2.815C23.395 4.025 24 5.53 24 7.33C24 8.25 23.835 9.16 23.505 10.06C23.175 10.96 22.6 11.965 21.78 13.075C20.96 14.185 19.86 15.445 18.48 16.855C17.1 18.265 15.35 19.94 13.23 21.88L12 22.99ZM12 20.62C14.02 18.76 15.685 17.165 16.995 15.835C18.305 14.505 19.345 13.34 20.115 12.34C20.885 11.34 21.425 10.45 21.735 9.67C22.045 8.89 22.2 8.11 22.2 7.33C22.2 6.01 21.78 4.925 20.94 4.075C20.1 3.225 19.02 2.8 17.7 2.8C16.68 2.8 15.73 3.115 14.85 3.745C13.97 4.375 13.26 5.26 12.72 6.4H11.25C10.73 5.28 10.03 4.4 9.15 3.76C8.27 3.12 7.32 2.8 6.3 2.8C4.98 2.8 3.9 3.225 3.06 4.075C2.22 4.925 1.8 6.01 1.8 7.33C1.8 8.11 1.955 8.895 2.265 9.685C2.575 10.475 3.115 11.375 3.885 12.385C4.655 13.395 5.7 14.56 7.02 15.88C8.34 17.2 10 18.78 12 20.62Z" fill="currentColor"/>
    </g>
</svg>