<svg viewBox="0 0 24 24" xmlns="http://www.w3.org/2000/svg">
    <g id="add">
        <path d="M10.7143 24V13.2857H0V10.7143H10.7143V0H13.2857V10.7143H24V13.2857H13.2857V24H10.7143Z" fill="currentColor"/>
    </g>

    <g id="bookmark">
        <path d="M3 24V1.98621C3 1.45655 3.19862 0.993104 3.59586 0.595862C3.9931 0.198621 4.45655 0 4.98621 0H19.5517C20.0814 0 20.5448 0.198621 20.9421 0.595862C21.3393 0.993104 21.5379 1.45655 21.5379 1.98621V24L12.269 20.0276L3 24ZM4.98621 20.9876L12.269 17.909L19.5517 20.9876V1.98621H4.98621V20.9876ZM4.98621 1.98621H19.5517H12.269H4.98621Z" fill="currentColor"/>
    </g>

    <g id="bookmark-black">
        <path d="M19 0H5.66667C4.2 0 3 1.2 3 2.66667V24L12.3333 20L21.6667 24V2.66667C21.6667 1.2 20.4667 0 19 0Z" fill="currentColor"/>
    </g>

    <g id="chat">
        <path d="M4.8 14.43H14.19V12.63H4.8V14.43ZM4.8 10.53H19.2V8.73H4.8V10.53ZM4.8 6.63H19.2V4.83H4.8V6.63ZM0 24V1.8C0 1.34 0.18 0.925 0.54 0.555C0.9 0.185 1.32 0 1.8 0H22.2C22.66 0 23.075 0.185 23.445 0.555C23.815 0.925 24 1.34 24 1.8V17.4C24 17.86 23.815 18.275 23.445 18.645C23.075 19.015 22.66 19.2 22.2 19.2H4.8L0 24ZM1.8 19.65L4.05 17.4H22.2V1.8H1.8V19.65Z" fill="currentColor"/>
    </g>

    <g id="check">
        <path d="M8.25806 20.3272L0 12.0691L1.58525 10.4839L8.25806 17.1567L22.4147 3L24 4.58525L8.25806 20.3272Z" fill="currentColor"/>
    </g>

    <g id="chevron-left">
        <path d="M13.8095 18.6386L8.37931 12.9281C8.25928 12.8044 8.164 12.6571 8.09898 12.4949C8.03397 12.3327 8.00049 12.1587 8.00049 11.983C8.00049 11.8073 8.03397 11.6333 8.09898 11.4711C8.164 11.3089 8.25928 11.1617 8.37931 11.0379L13.8095 5.39398C13.9285 5.26923 14.0702 5.1702 14.2263 5.10261C14.3823 5.03504 14.5497 5.00025 14.7188 5.00025C14.8878 5.00025 15.0552 5.03504 15.2113 5.10261C15.3673 5.1702 15.5089 5.26923 15.628 5.39398C15.8665 5.64339 16.0005 5.98076 16.0005 6.33243C16.0005 6.68409 15.8665 7.02145 15.628 7.27086L11.0944 11.983L15.628 16.6952C15.8646 16.9431 15.9981 17.2777 15.9994 17.6269C16.0005 17.8021 15.9681 17.9759 15.9043 18.138C15.8407 18.3002 15.7467 18.4476 15.628 18.5721C15.5133 18.7013 15.375 18.8055 15.2212 18.8789C15.0675 18.9524 14.9012 18.9933 14.7321 18.9994C14.563 19.0056 14.3944 18.9769 14.2361 18.915C14.0777 18.853 13.9327 18.7592 13.8095 18.6386Z" fill="currentColor"/>
    </g>

    <g id="chevron-right">
        <path d="M10.1911 18.638L15.6213 12.9274C15.7413 12.8036 15.8365 12.6564 15.9016 12.4942C15.9666 12.332 16 12.158 16 11.9823C16 11.8066 15.9666 11.6326 15.9016 11.4704C15.8365 11.3082 15.7413 11.1609 15.6213 11.0372L10.1911 5.39325C10.0721 5.2685 9.93043 5.16947 9.77436 5.10189C9.6183 5.0343 9.4509 4.99952 9.28183 4.99952C9.11277 4.99952 8.94537 5.0343 8.78931 5.10189C8.63325 5.16947 8.49159 5.2685 8.37253 5.39325C8.134 5.64266 8.00011 5.98004 8.00011 6.3317C8.00011 6.68336 8.134 7.02074 8.37253 7.27013L12.9062 11.9823L8.37253 16.6944C8.13594 16.9424 8.00255 17.277 8.00114 17.6262C8.00016 17.8014 8.03247 17.9751 8.0962 18.1373C8.15994 18.2994 8.25384 18.447 8.37253 18.5714C8.48731 18.7005 8.62558 18.8049 8.77936 18.8783C8.93314 18.9516 9.09939 18.9926 9.26848 18.9987C9.43758 19.0049 9.60618 18.9762 9.76455 18.9143C9.9229 18.8523 10.0679 18.7584 10.1911 18.638Z" fill="currentColor"/>
    </g>

    <g id="close">
        <path d="M1.84615 24L0 22.1538L10.1538 12L0 1.84615L1.84615 0L12 10.1538L22.1538 0L24 1.84615L13.8462 12L24 22.1538L22.1538 24L12 13.8462L1.84615 24Z" fill="currentColor"/>
    </g>

    <g id="delete">
        <path d="M4.36667 24C3.81111 24 3.33889 23.8056 2.95 23.4167C2.56111 23.0278 2.36667 22.5556 2.36667 22V3H1V1H7.26667V0H16.0667V1H22.3333V3H20.9667V22C20.9667 22.5333 20.7667 23 20.3667 23.4C19.9667 23.8 19.5 24 18.9667 24H4.36667ZM18.9667 3H4.36667V22H18.9667V3ZM7.9 19.1333H9.9V5.83333H7.9V19.1333ZM13.4333 19.1333H15.4333V5.83333H13.4333V19.1333Z" fill="currentColor"/>
    </g>

    <g id="edit">
        <path d="M1.96453 22.0355H3.40518L17.91 7.5307L16.4693 6.09004L1.96453 20.5948V22.0355ZM22.0682 6.12278L17.8772 1.93179L19.2524 0.556617C19.6235 0.185539 20.0819 0 20.6276 0C21.1733 0 21.6316 0.185539 22.0027 0.556617L23.4434 1.99727C23.8145 2.36835 24 2.82674 24 3.37244C24 3.91814 23.8145 4.37653 23.4434 4.74761L22.0682 6.12278ZM20.693 7.49795L4.191 24H0V19.809L16.502 3.30696L20.693 7.49795ZM17.1896 6.81037L16.4693 6.09004L17.91 7.5307L17.1896 6.81037Z" fill="currentColor"/>
    </g>

    <g id="favourite">
        <path d="M12 22.99L10.77 21.88C8.65 19.94 6.9 18.265 5.52 16.855C4.14 15.445 3.04 14.185 2.22 13.075C1.4 11.965 0.825 10.96 0.495 10.06C0.165 9.16 0 8.25 0 7.33C0 5.53 0.605 4.025 1.815 2.815C3.025 1.605 4.52 1 6.3 1C7.44 1 8.495 1.27 9.465 1.81C10.435 2.35 11.28 3.13 12 4.15C12.84 3.07 13.73 2.275 14.67 1.765C15.61 1.255 16.62 1 17.7 1C19.48 1 20.975 1.605 22.185 2.815C23.395 4.025 24 5.53 24 7.33C24 8.25 23.835 9.16 23.505 10.06C23.175 10.96 22.6 11.965 21.78 13.075C20.96 14.185 19.86 15.445 18.48 16.855C17.1 18.265 15.35 19.94 13.23 21.88L12 22.99ZM12 20.62C14.02 18.76 15.685 17.165 16.995 15.835C18.305 14.505 19.345 13.34 20.115 12.34C20.885 11.34 21.425 10.45 21.735 9.67C22.045 8.89 22.2 8.11 22.2 7.33C22.2 6.01 21.78 4.925 20.94 4.075C20.1 3.225 19.02 2.8 17.7 2.8C16.68 2.8 15.73 3.115 14.85 3.745C13.97 4.375 13.26 5.26 12.72 6.4H11.25C10.73 5.28 10.03 4.4 9.15 3.76C8.27 3.12 7.32 2.8 6.3 2.8C4.98 2.8 3.9 3.225 3.06 4.075C2.22 4.925 1.8 6.01 1.8 7.33C1.8 8.11 1.955 8.895 2.265 9.685C2.575 10.475 3.115 11.375 3.885 12.385C4.655 13.395 5.7 14.56 7.02 15.88C8.34 17.2 10 18.78 12 20.62Z" fill="currentColor"/>
    </g>

    <g id="favourite-black">
        <path d="M12 23.02L10.26 21.436C4.08 15.832 0 12.136 0 7.6C0 3.904 2.904 1 6.6 1C8.688 1 10.692 1.972 12 3.508C13.308 1.972 15.312 1 17.4 1C21.096 1 24 3.904 24 7.6C24 12.136 19.92 15.832 13.74 21.448L12 23.02Z" fill="currentColor"/>
    </g>

    <g id="filter-list">
        <path d="M9.33333 20V18H14.6667V20H9.33333ZM4 13V11H20V13H4ZM0 6V4H24V6H0Z" fill="currentColor"/>
    </g>

    <g id="history">
        <path d="M11.9 24C8.58889 24 5.77778 22.8278 3.46667 20.4833C1.15556 18.1389 0 15.3 0 11.9667H2C2 14.7444 2.95556 17.1111 4.86667 19.0667C6.77778 21.0222 9.12222 22 11.9 22C14.7222 22 17.1111 21.0111 19.0667 19.0333C21.0222 17.0556 22 14.6556 22 11.8333C22 9.07778 21.0111 6.75 19.0333 4.85C17.0556 2.95 14.6778 2 11.9 2C10.3889 2 8.97222 2.34444 7.65 3.03333C6.32778 3.72222 5.17778 4.63333 4.2 5.76667H7.7V7.76667H0.733333V0.833333H2.73333V4.36667C3.88889 3.01111 5.26111 1.94444 6.85 1.16667C8.43889 0.388889 10.1222 0 11.9 0C13.5667 0 15.1333 0.311111 16.6 0.933333C18.0667 1.55556 19.35 2.40556 20.45 3.48333C21.55 4.56111 22.4167 5.82222 23.05 7.26667C23.6833 8.71111 24 10.2667 24 11.9333C24 13.6 23.6833 15.1667 23.05 16.6333C22.4167 18.1 21.55 19.3778 20.45 20.4667C19.35 21.5556 18.0667 22.4167 16.6 23.05C15.1333 23.6833 13.5667 24 11.9 24ZM16.1667 17.4333L11.0333 12.3667V5.23333H13.0333V11.5333L17.6 16L16.1667 17.4333Z" fill="currentColor"/>
    </g>

    <g id="search">
        <path d="M22.5333 24L13.7667 15.2333C13.1 15.8111 12.3222 16.2611 11.4333 16.5833C10.5444 16.9056 9.6 17.0667 8.6 17.0667C6.2 17.0667 4.16667 16.2333 2.5 14.5667C0.833333 12.9 0 10.8889 0 8.53333C0 6.17778 0.833333 4.16667 2.5 2.5C4.16667 0.833333 6.18889 0 8.56667 0C10.9222 0 12.9278 0.833333 14.5833 2.5C16.2389 4.16667 17.0667 6.17778 17.0667 8.53333C17.0667 9.48889 16.9111 10.4111 16.6 11.3C16.2889 12.1889 15.8222 13.0222 15.2 13.8L24 22.5333L22.5333 24ZM8.56667 15.0667C10.3667 15.0667 11.9 14.4278 13.1667 13.15C14.4333 11.8722 15.0667 10.3333 15.0667 8.53333C15.0667 6.73333 14.4333 5.19444 13.1667 3.91667C11.9 2.63889 10.3667 2 8.56667 2C6.74444 2 5.19444 2.63889 3.91667 3.91667C2.63889 5.19444 2 6.73333 2 8.53333C2 10.3333 2.63889 11.8722 3.91667 13.15C5.19444 14.4278 6.74444 15.0667 8.56667 15.0667Z" fill="currentColor"/>
    </g>

    <g id="view-list">
        <path d="M8.1 19.4H22.2V15.29H8.1V19.4ZM1.8 7.91H6.3V3.8H1.8V7.91ZM1.8 13.52H6.3V9.71H1.8V13.52ZM1.8 19.4H6.3V15.29H1.8V19.4ZM8.1 13.52H22.2V9.71H8.1V13.52ZM8.1 7.91H22.2V3.8H8.1V7.91ZM1.8 21.2C1.32 21.2 0.9 21.02 0.54 20.66C0.18 20.3 0 19.88 0 19.4V3.8C0 3.32 0.18 2.9 0.54 2.54C0.9 2.18 1.32 2 1.8 2H22.2C22.68 2 23.1 2.18 23.46 2.54C23.82 2.9 24 3.32 24 3.8V19.4C24 19.88 23.82 20.3 23.46 20.66C23.1 21.02 22.68 21.2 22.2 21.2H1.8Z" fill="currentColor"/>
    </g>
</svg>